<?xml version="1.0" encoding="UTF-8" standalone="no"?>
<!-- Created with Inkscape (http://www.inkscape.org/) -->

<svg
   xmlns:dc="http://purl.org/dc/elements/1.1/"
   xmlns:cc="http://creativecommons.org/ns#"
   xmlns:rdf="http://www.w3.org/1999/02/22-rdf-syntax-ns#"
   xmlns:svg="http://www.w3.org/2000/svg"
   xmlns="http://www.w3.org/2000/svg"
   xmlns:sodipodi="http://sodipodi.sourceforge.net/DTD/sodipodi-0.dtd"
   xmlns:inkscape="http://www.inkscape.org/namespaces/inkscape"
   width="285.39999"
   height="437.07498"
   viewBox="0 0 75.512084 115.64275"
   version="1.1"
   id="svg9847"
   inkscape:version="0.92.0 r15299"
   sodipodi:docname="hive.svg">
  <defs
     id="defs9841" />
  <sodipodi:namedview
     id="base"
     pagecolor="#ffffff"
     bordercolor="#666666"
     borderopacity="1.0"
     inkscape:pageopacity="0.0"
     inkscape:pageshadow="2"
     inkscape:zoom="1.2250762"
     inkscape:cx="141.7"
     inkscape:cy="217.5375"
     inkscape:document-units="mm"
     inkscape:current-layer="layer1"
     showgrid="false"
     fit-margin-top="0"
     fit-margin-left="0"
     fit-margin-right="0"
     fit-margin-bottom="0"
     units="px"
     inkscape:window-width="1280"
     inkscape:window-height="744"
     inkscape:window-x="-4"
     inkscape:window-y="-4"
     inkscape:window-maximized="1" />
  <metadata
     id="metadata9844">
    <rdf:RDF>
      <cc:Work
         rdf:about="">
        <dc:format>image/svg+xml</dc:format>
        <dc:type
           rdf:resource="http://purl.org/dc/dcmitype/StillImage" />
        <dc:title></dc:title>
      </cc:Work>
    </rdf:RDF>
  </metadata>
  <g
     inkscape:label="Layer 1"
     inkscape:groupmode="layer"
     id="layer1"
     transform="translate(15.568838,-251.76525)">
    <g
       id="g9880"
       transform="matrix(0.26458333,0,0,0.26458333,-16.071547,251.44114)">
      <g
         id="g9853">
        <path
           d="m 279.3,437.1 c 3.9,0 7,-3.1 7,-6.9 0,-3.8 -3.1,-6.9 -7,-6.9 H 233 v -27.9 h 34.8 c 3.9,0 7,-3.1 7,-6.9 0,-3.8 -3.1,-6.9 -7,-6.9 H 233 v -26.8 h 43.9 c 3.9,0 7,-3.1 7,-6.9 0,-3.8 -3.1,-6.9 -7,-6.9 h -51 c -3.9,0 -7,3.1 -7,7 v 82 c 0,3.8 3.1,7 7,7 h 53.4 z"
           id="XMLID_11_"
           inkscape:connector-curvature="0"
           style="fill:#ff7a00" />
        <path
           d="m 70.4,437.1 c 3.8,0 7,-3.2 7,-7 v -82.6 c 0,-3.9 -3.2,-7 -7,-7 -3.9,0 -7,3.1 -7,7 v 34.1 H 16.9 v -34.1 c 0,-3.9 -3.1,-7 -7,-7 -3.8,0 -7,3.1 -7,7 V 430 c 0,3.8 3.2,7 7,7 3.9,0 7,-3.2 7,-7 V 395.3 H 63.4 V 430 c 0,3.8 3.1,7.1 7,7.1 z"
           id="XMLID_10_"
           inkscape:connector-curvature="0"
           style="fill:#ff7a00" />
        <path
           d="m 206,349.9 c 1.6,-3.7 -0.1,-7.5 -3.5,-8.9 -3.6,-1.6 -7.7,0.1 -9.1,3.6 l -29.2,68.2 -29.2,-68 c -1.5,-3.6 -5.7,-5.3 -9.4,-3.7 -3.5,1.5 -5.2,5.5 -3.7,9.2 l 35.6,82.7 c 1.3,3 4.1,4.3 6.5,4.3 2.4,0 5.2,-1.2 6.5,-4.3 z"
           id="XMLID_9_"
           inkscape:connector-curvature="0"
           style="fill:#ff7a00" />
        <path
           d="m 101.2,437.1 c 3.9,0 7,-3.2 7,-7 v -82.6 c 0,-3.9 -3.1,-7 -7,-7 -3.9,0 -7,3.1 -7,7 V 430 c 0,3.8 3.1,7.1 7,7.1 z"
           id="XMLID_8_"
           inkscape:connector-curvature="0"
           style="fill:#ff7a00" />
      </g>
      <g
         id="g9860">
        <path
           d="m 267.5,134.1 c 6.1,-0.9 8.4,-1.2 11.7,-2.4 4.2,-1.4 7.1,-4.8 7.1,-9.5 0,-4.5 -3,-8.3 -7.1,-9.5 -3.3,-1 -8.2,-0.2 -11.7,0.1 l -109,11 c -9.2,0.9 -18.7,0.9 -27.9,0 l -108.9,-11 c -3.5,-0.4 -8.4,-1.2 -11.7,-0.1 -4.2,1.2 -7.1,5.1 -7.1,9.5 0,4.7 3,8.1 7.1,9.5 3.2,1.1 5.6,1.4 11.7,2.4 l 104.2,16.7 c 12.3,1.9 25,1.9 37.3,0 z"
           id="XMLID_7_"
           inkscape:connector-curvature="0"
           style="fill:#ff7a00" />
        <path
           d="m 248.3,84 c 3.5,-0.2 8.4,-0.4 11.7,-1.4 4.2,-1.2 7.1,-5.1 7.1,-9.5 0,-4.4 -3,-8.3 -7.1,-9.5 -3.3,-1 -8.2,-0.9 -11.7,-0.9 H 40.8 c -3.5,0 -8.4,-0.1 -11.7,0.9 -4.2,1.2 -7.1,5.1 -7.1,9.5 0,4.4 3,8.3 7.1,9.5 3.3,0.9 8.2,1.2 11.7,1.4 l 92.2,6.6 c 7.6,0.5 15.4,0.5 22.9,0 z"
           id="XMLID_6_"
           inkscape:connector-curvature="0"
           style="fill:#ff7a00" />
        <path
           d="M 177,4.1 C 155.3,1.6 133.6,1.6 111.9,4.1 L 79.5,7.8 C 76,8.2 71.1,8.4 67.8,9.5 c -3.3,1.1 -7.1,4.2 -7.1,9.5 0,4.6 3,8.3 7.1,9.5 3.3,0.9 8.2,0.9 11.7,0.9 h 130 c 3.5,0 8.4,0.1 11.7,-0.9 4.1,-1.2 7.1,-4.9 7.1,-9.5 0,-5.3 -3.8,-8.4 -7.1,-9.5 C 218,8.5 213,8.2 209.5,7.8 Z"
           id="XMLID_5_"
           inkscape:connector-curvature="0"
           style="fill:#ff7a00" />
        <path
           d="m 123.1,210.9 c 14.1,3.5 28.7,3.5 42.9,0 l 94.6,-23.2 c 6,-1.4 8.4,-1.9 11.7,-3 4.2,-1.4 7.1,-4.9 7.1,-9.5 0,-4.5 -3,-8.4 -7.1,-9.6 -3.3,-0.9 -8.2,0.3 -11.7,0.9 l -102.3,18.3 c -9,1.6 -18.5,1.6 -27.6,0 L 28.5,166.5 c -3.5,-0.6 -8.4,-1.9 -11.7,-0.9 -4.2,1.2 -7.1,5.1 -7.1,9.6 0,4.6 3,8.2 7.1,9.5 3.3,1.1 5.7,1.6 11.7,3 z"
           id="XMLID_4_"
           inkscape:connector-curvature="0"
           style="fill:#ff7a00" />
        <path
           d="m 232.5,249 c 6.5,-2.2 8.7,-3 11.7,-4.4 4,-1.8 7.1,-4.6 7.1,-9.7 0,-4.5 -3,-8.4 -7.1,-9.6 -3.8,-1.1 -8.3,0.5 -11.7,1.4 l -64,17.2 c -15.7,4.3 -32.3,4.2 -47.9,0 L 56.7,226.7 c -3.4,-0.9 -7.9,-2.5 -11.7,-1.4 -4.2,1.2 -7.1,5.1 -7.1,9.6 0,5.1 3.1,7.9 7.1,9.7 3,1.4 5.2,2.2 11.7,4.4 l 60.7,21.1 c 17.6,6.1 36.7,6.1 54.3,0 z"
           id="XMLID_3_"
           inkscape:connector-curvature="0"
           style="fill:#ff7a00" />
      </g>
    </g>
  </g>
</svg>
